G75*
%MOIN*%
%OFA0B0*%
%FSLAX26Y26*%
%IPPOS*%
%LPD*%
%AMOC8*
5,1,8,0,0,1.08239X$1,22.5*
%
%ADD10C,0.075000*%
%ADD11OC8,0.075000*%
%ADD12R,0.074000X0.074000*%
%ADD13C,0.074000*%
%ADD14R,0.043559X0.043559*%
%ADD15C,0.043559*%
%ADD16R,0.047496X0.047496*%
%ADD17C,0.047496*%
%ADD18C,0.070866*%
%ADD19R,0.059055X0.059055*%
%ADD20OC8,0.070000*%
%ADD21C,0.039622*%
%ADD22C,0.010000*%
%ADD23C,0.016000*%
%ADD24C,0.032000*%
%ADD25C,0.012000*%
D10*
X-00150000Y-00550000D03*
D11*
X-00150000Y-00750000D03*
D12*
X-00900000Y00100000D03*
X00900000Y00100000D03*
D13*
X00900000Y00000000D03*
X00900000Y-00100000D03*
X00900000Y-00200000D03*
X00900000Y-00300000D03*
X00900000Y-00400000D03*
X00900000Y-00500000D03*
X00900000Y-00600000D03*
X00900000Y-00700000D03*
X00900000Y-00800000D03*
X-00900000Y-00800000D03*
X-00900000Y-00700000D03*
X-00900000Y-00600000D03*
X-00900000Y-00500000D03*
X-00900000Y-00400000D03*
X-00900000Y-00300000D03*
X-00900000Y-00200000D03*
X-00900000Y-00100000D03*
X-00900000Y00000000D03*
D14*
X-01300000Y00093701D03*
X01300000Y-00293701D03*
D15*
X01300000Y-00214961D03*
X01300000Y-00136220D03*
X01300000Y-00057480D03*
X01300000Y00021260D03*
X01300000Y00100000D03*
X-01300000Y00014961D03*
X-01300000Y-00063780D03*
X-01300000Y-00142520D03*
X-01300000Y-00221260D03*
X-01300000Y-00300000D03*
D16*
X00150000Y00650000D03*
X00350000Y00100000D03*
D17*
X-00050000Y00100000D03*
X-00150000Y00100000D03*
X-00250000Y00100000D03*
X-00350000Y00100000D03*
X-00350000Y-00300000D03*
X-00250000Y-00300000D03*
X-00150000Y-00300000D03*
X-00050000Y-00300000D03*
X00050000Y-00300000D03*
X00150000Y-00300000D03*
X00250000Y-00300000D03*
X00350000Y-00300000D03*
X00250000Y00100000D03*
X00150000Y00100000D03*
X00050000Y00100000D03*
X00150000Y00350000D03*
X00150000Y00450000D03*
X00150000Y00550000D03*
X00628740Y00632677D03*
X00786220Y00632677D03*
X00943701Y00632677D03*
D18*
X01300000Y00587205D03*
X01300000Y00725000D03*
X01300000Y00449409D03*
X01300000Y00311614D03*
D19*
X01022441Y00563780D03*
X01022441Y00800000D03*
X00550000Y00800000D03*
X00550000Y00563780D03*
D20*
X-00550000Y00500000D03*
X-00650000Y00500000D03*
X-00750000Y00500000D03*
X-00850000Y00500000D03*
X-00950000Y00500000D03*
X-01050000Y00500000D03*
X-01150000Y00500000D03*
X-01250000Y00500000D03*
D21*
X-01000000Y00675000D03*
X-00950000Y00675000D03*
X-00950000Y00725000D03*
X-01000000Y00725000D03*
X-00900000Y00725000D03*
X-00850000Y00725000D03*
X-00800000Y00725000D03*
X-00800000Y00675000D03*
X-00850000Y00675000D03*
X-00900000Y00675000D03*
D22*
X-01050000Y00525000D01*
X-01050000Y00500000D01*
X-00850000Y00675000D02*
X-00725000Y00550000D01*
X-00600000Y00550000D01*
X-00550000Y00500000D01*
X-00550000Y-00250000D02*
X-00900000Y-00600000D01*
X-00900000Y-00500000D02*
X-00950000Y-00500000D01*
X-01300000Y-00150000D01*
X-01300000Y-00142520D01*
X-00900000Y-00800000D02*
X-00650000Y-00800000D01*
X-00150000Y-00300000D01*
X00150000Y-00300000D02*
X00450000Y-00600000D01*
X00900000Y-00600000D01*
X00900000Y-00700000D02*
X00450000Y-00700000D01*
X00900000Y-00400000D02*
X00937500Y-00362500D01*
X01337500Y-00362500D01*
X01400000Y-00300000D01*
X01400000Y00330000D01*
X01355000Y00380000D01*
X01300000Y-00057480D02*
X01300000Y-00062500D01*
X01112500Y-00250000D01*
X-00550000Y-00250000D01*
D23*
X-00900000Y00100000D02*
X-01137500Y00100000D01*
X-01300000Y-00062500D01*
X-01300000Y-00063780D01*
X-01300000Y00014961D02*
X-01300000Y00025000D01*
X-01350000Y00075000D01*
X-01350000Y00137500D01*
X-01300000Y00187500D01*
X-00137500Y00187500D01*
X-00050000Y00100000D01*
X-00150000Y00100000D02*
X-00212500Y00162500D01*
X-01237500Y00162500D01*
X-01300000Y00100000D01*
X-01300000Y00093701D01*
X-01250000Y00500000D02*
X-01187500Y00562500D01*
X-01112500Y00562500D01*
X-01000000Y00675000D01*
X-01037500Y00675000D01*
X-01037500Y00750000D01*
X-01025000Y00762500D01*
X-00801000Y00762500D01*
X-00801000Y00729000D01*
X-00800000Y00725000D01*
X-00800000Y00762500D02*
X-00801000Y00762500D01*
X00050000Y00100000D02*
X00175000Y00225000D01*
X01325000Y00225000D01*
X01375000Y00175000D01*
X01375000Y-00287500D01*
X01325000Y-00337500D01*
X01260000Y-00337500D01*
X01250000Y-00327500D01*
X01250000Y-00275000D01*
X01300000Y-00225000D01*
X01300000Y-00214961D01*
X01350000Y-00237500D02*
X01300000Y-00287500D01*
X01300000Y-00293701D01*
X01350000Y-00237500D02*
X01350000Y00150000D01*
X01300000Y00200000D01*
X00250000Y00200000D01*
X00150000Y00100000D01*
D24*
X00350000Y00100000D02*
X00900000Y00100000D01*
X00750000Y00450000D02*
X00932677Y00632677D01*
X00943701Y00632677D01*
X00725000Y00725000D02*
X01300000Y00725000D01*
X00725000Y00725000D02*
X00637500Y00637500D01*
X00628740Y00632677D01*
X00750000Y00450000D02*
X00500000Y00450000D01*
X00400000Y00550000D01*
X00150000Y00550000D01*
X-00500000Y00550000D01*
X-00550000Y00600000D01*
X-00700000Y00600000D01*
X-00775000Y00675000D01*
X-00800000Y00675000D01*
D25*
X-00950000Y00500000D02*
X-00850000Y00400000D01*
X00250000Y00400000D01*
X00270000Y00380000D01*
X01355000Y00380000D01*
X00450000Y-00700000D02*
X00050000Y-00300000D01*
M02*
