%
M48
M72
T01C0.02362
T02C0.02756
T03C0.03150
T04C0.03200
T05C0.03937
T06C0.04000
T07C0.04724
T08C0.10000
%
T01
X-100000Y67500
X-95000Y67500
X-95000Y72500
X-100000Y72500
X-90000Y72500
X-85000Y72500
X-80000Y72500
X-80000Y67500
X-85000Y67500
X-90000Y67500
T02
X-130000Y9370
X-130000Y1496
X-130000Y-6378
X-130000Y-14252
X-130000Y-22126
X-130000Y-30000
X130000Y-29370
X130000Y-21496
X130000Y-13622
X130000Y-5748
X130000Y2126
X130000Y10000
T03
X-5000Y10000
X-15000Y10000
X-25000Y10000
X-35000Y10000
X-35000Y-30000
X-25000Y-30000
X-15000Y-30000
X-5000Y-30000
X5000Y-30000
X15000Y-30000
X25000Y-30000
X35000Y-30000
X35000Y10000
X25000Y10000
X15000Y10000
X5000Y10000
X15000Y35000
X15000Y45000
X15000Y55000
X15000Y65000
X62874Y63268
X78622Y63268
X94370Y63268
X-55000Y50000
X-65000Y50000
X-75000Y50000
X-85000Y50000
X-95000Y50000
X-105000Y50000
X-115000Y50000
X-125000Y50000
T04
X-15000Y-55000
X-15000Y-75000
T05
X55000Y56378
X55000Y80000
X102244Y80000
X102244Y56378
T06
X90000Y10000
X90000Y0
X90000Y-10000
X90000Y-20000
X90000Y-30000
X90000Y-40000
X90000Y-50000
X90000Y-60000
X90000Y-70000
X90000Y-80000
X-90000Y-80000
X-90000Y-70000
X-90000Y-60000
X-90000Y-50000
X-90000Y-40000
X-90000Y-30000
X-90000Y-20000
X-90000Y-10000
X-90000Y0
X-90000Y10000
T07
X130000Y31161
X130000Y44941
X130000Y58720
X130000Y72500
T08
X160000Y0
X0Y160000
X-160000Y0
X0Y-160000
M30
