G75*
%MOIN*%
%OFA0B0*%
%FSLAX26Y26*%
%IPPOS*%
%LPD*%
%AMOC8*
5,1,8,0,0,1.08239X$1,22.5*
%
%ADD10C,0.108000*%
%ADD11R,0.047370X0.051307*%
%ADD12C,0.083000*%
%ADD13OC8,0.083000*%
%ADD14R,0.082000X0.082000*%
%ADD15C,0.082000*%
%ADD16R,0.051559X0.051559*%
%ADD17C,0.051559*%
%ADD18R,0.055496X0.055496*%
%ADD19C,0.055496*%
%ADD20R,0.024000X0.040000*%
%ADD21C,0.078866*%
%ADD22R,0.067055X0.067055*%
%ADD23OC8,0.078000*%
%ADD24C,0.047622*%
D10*
X-01600000Y00000000D03*
X00000000Y-01600000D03*
X01600000Y00000000D03*
X00000000Y01600000D03*
D11*
X00250000Y-00566535D03*
X00250000Y-00633465D03*
X00150000Y-00716535D03*
X00150000Y-00783465D03*
X00050000Y-00783465D03*
X00050000Y-00716535D03*
D12*
X-00150000Y-00550000D03*
D13*
X-00150000Y-00750000D03*
D14*
X-00900000Y00100000D03*
X00900000Y00100000D03*
D15*
X00900000Y00000000D03*
X00900000Y-00100000D03*
X00900000Y-00200000D03*
X00900000Y-00300000D03*
X00900000Y-00400000D03*
X00900000Y-00500000D03*
X00900000Y-00600000D03*
X00900000Y-00700000D03*
X00900000Y-00800000D03*
X-00900000Y-00800000D03*
X-00900000Y-00700000D03*
X-00900000Y-00600000D03*
X-00900000Y-00500000D03*
X-00900000Y-00400000D03*
X-00900000Y-00300000D03*
X-00900000Y-00200000D03*
X-00900000Y-00100000D03*
X-00900000Y00000000D03*
D16*
X-01300000Y00093701D03*
X01300000Y-00293701D03*
D17*
X01300000Y-00214961D03*
X01300000Y-00136220D03*
X01300000Y-00057480D03*
X01300000Y00021260D03*
X01300000Y00100000D03*
X-01300000Y00014961D03*
X-01300000Y-00063780D03*
X-01300000Y-00142520D03*
X-01300000Y-00221260D03*
X-01300000Y-00300000D03*
D18*
X00150000Y00650000D03*
X00350000Y00100000D03*
D19*
X-00050000Y00100000D03*
X-00150000Y00100000D03*
X-00250000Y00100000D03*
X-00350000Y00100000D03*
X-00350000Y-00300000D03*
X-00250000Y-00300000D03*
X-00150000Y-00300000D03*
X-00050000Y-00300000D03*
X00050000Y-00300000D03*
X00150000Y-00300000D03*
X00250000Y-00300000D03*
X00350000Y-00300000D03*
X00250000Y00100000D03*
X00150000Y00100000D03*
X00050000Y00100000D03*
X00150000Y00350000D03*
X00150000Y00450000D03*
X00150000Y00550000D03*
X00628740Y00632677D03*
X00786220Y00632677D03*
X00943701Y00632677D03*
D20*
X00124803Y-00550000D03*
X00087402Y-00550000D03*
X00050000Y-00550000D03*
X00050000Y-00636000D03*
X00124803Y-00636000D03*
D21*
X01300000Y00311614D03*
X01300000Y00449409D03*
X01300000Y00587205D03*
X01300000Y00725000D03*
D22*
X01022441Y00800000D03*
X01022441Y00563780D03*
X00550000Y00563780D03*
X00550000Y00800000D03*
D23*
X-00550000Y00500000D03*
X-00650000Y00500000D03*
X-00750000Y00500000D03*
X-00850000Y00500000D03*
X-00950000Y00500000D03*
X-01050000Y00500000D03*
X-01150000Y00500000D03*
X-01250000Y00500000D03*
D24*
X-01000000Y00675000D03*
X-00950000Y00675000D03*
X-00950000Y00725000D03*
X-01000000Y00725000D03*
X-00900000Y00725000D03*
X-00850000Y00725000D03*
X-00800000Y00725000D03*
X-00800000Y00675000D03*
X-00850000Y00675000D03*
X-00900000Y00675000D03*
M02*
